<svg width="1101" height="812" viewBox="0 0 1101 812" fill="none" xmlns="http://www.w3.org/2000/svg"><g clip-path="url(#clip0_24_414)"><path opacity=".05" d="M11.84 389.02c17.37 67.13 54.11 125.16 112.17 153.29 120.7 58.46 392.91 28.31 596.07-6.3 105.09-17.9 197.46-67.3 264.56-136.82l-972.8-10.17zM1077.2 73.03H965.73c-5.29 0-9.63-3.92-9.63-8.71 0-4.79 4.34-8.72 9.63-8.72h19.28c-5.3 0-9.63-3.92-9.63-8.72 0-4.8 4.33-8.71 9.63-8.71h-13.76c-5.3 0-9.64-3.92-9.64-8.72 0-4.8 4.34-8.71 9.64-8.71h58.18c-12.91-5.43-28-9.29-45.39-11.32-158.65-18.43-215.29-6.24-235.27 6.29a234.522 234.522 0 01-81.54 32.34c-97.88 18.27-280.93 40.25-446.84-7-82.46-23.53-143.75 16.18-180.48 82.56h1056.65c-1.38-19.29-5.51-37.11-13.09-52.7-1.8 1.386-4 2.132-6.27 2.12zM2.39 248.9a402.53 402.53 0 004.32 117.12l978.68 32.39a415.21 415.21 0 0068-93.82L2.39 248.9zm387.08 83.55H370.2c5.3 0 9.64 3.93 9.64 8.72 0 4.79-4.34 8.71-9.64 8.71H258.73c-5.29 0-9.63-3.92-9.63-8.71 0-4.79 4.34-8.72 9.63-8.72h19.28c-5.3 0-9.63-3.92-9.63-8.71 0-4.79 4.33-8.72 9.63-8.72h-13.77c-5.3 0-9.64-3.92-9.64-8.71 0-4.79 4.34-8.72 9.64-8.72h111.47c5.3 0 9.63 3.92 9.63 8.72 0 4.8-4.33 8.71-9.63 8.71h13.76c5.3 0 9.63 3.92 9.63 8.72 0 4.8-4.33 8.71-9.63 8.71zm707.13-208.24L28.12 147.71c-13 30.23-21.62 64.41-25.59 99.83h1075.35c7-20.723 12.19-42.012 15.52-63.63 3.21-20.81 4.49-40.94 3.2-59.7zm-877.13 77.05H200.2c5.3 0 9.64 3.93 9.64 8.72 0 4.79-4.34 8.72-9.64 8.72H88.73c-5.29 0-9.63-3.93-9.63-8.72 0-4.79 4.34-8.72 9.63-8.72h19.28c-5.3 0-9.63-3.92-9.63-8.71 0-4.79 4.33-8.72 9.63-8.72H94.24c-5.3 0-9.64-3.92-9.64-8.71 0-4.79 4.34-8.72 9.64-8.72h111.47c5.3 0 9.63 3.92 9.63 8.72 0 4.8-4.33 8.71-9.63 8.71h13.76c5.3 0 9.63 3.93 9.63 8.72 0 4.79-4.33 8.71-9.63 8.71zm325.61 579.82c246.86 0 446.98-18.41 446.98-41.12 0-22.71-200.12-41.12-446.98-41.12S98.1 717.25 98.1 739.96c0 22.71 200.12 41.12 446.98 41.12z" fill="#5346F6"/><path d="M1000.64 400.32v-.52a8.49 8.49 0 00-1.27-3.21 25.284 25.284 0 00-9.26-8.76c-6.6-3.62-15.67-5.17-18.31-12.08-.81-2.14-.83-4.47-1.23-6.71a20.284 20.284 0 00-13.39-15.23c-3.14-1.05-6.53-1.34-9.58-2.64-6.82-2.9-10.42-10.05-13.47-16.66-3.947-8.533-7.893-17.07-11.84-25.61-3 1.51-6.88.8-9.69-1.09a20.096 20.096 0 01-6.27-7.75c-4.07-7.9-5.82-16.85-10.6-24.37-4.78-7.52-14.33-13.46-22.77-10.19a38.965 38.965 0 01-5.1 2.11c-7.23 1.69-15.23-6.57-21.42-2.56a6.994 6.994 0 00-2.43 2.66 1.335 1.335 0 010-.2 12.804 12.804 0 00-1.32 5.22v1.26c0 1.44.09 2.9.11 4.36a19.428 19.428 0 01-.28 3.66v-.1c-.117.68-.291 1.349-.52 2-1.61 4.32-6.07 7.15-8.16 11.21v-.2c-.235.442-.439.899-.61 1.37a10.195 10.195 0 00-.57 3.31c-.18 7.63 7.91 14.81 8.85 23 .67 5.8 2 7.66 6.93 10.94l1.08.72c-.43 0-.87.06-1.36.07a3.311 3.311 0 00-.57.06 6.086 6.086 0 00-2.671-.127 6.089 6.089 0 00-2.469 1.027c-3.78 3-12.72.69-16.69 0-3.97-.69-17.57 1.17-19.47 8.71-1.9 7.54-5.16 23.1-5.16 23.1s0 9.87-1.21 11.71a.585.585 0 000 .4c0 2.77.1 19.42-2.58 23.71-.66 1-.61 3.21-.12 5.93-2.82 3.63-5.47 7.87-5 10.65.86 5.69 12.4 23.58 28.94 14 0 0 9.41-17.21-2.43-26.36l.51-2c3.58 4.4 6.23 7.56 6.23 7.56s.14.37.36 1h-.36a46.994 46.994 0 012.78 13.08 15.998 15.998 0 01-.88 4.81h.31c-.09.34-.19.68-.31 1a8.721 8.721 0 01-3.11 4.21c-8.27 5.86-17.74 47.71-17.74 47.71s-18.76 67.65-22.51 71.5c-3.1 3.16 16.38 12.06 31 11a23.86 23.86 0 006-1.14c.09 1 .19 2 .29 2.91.31 3 .63 5.78.83 6.65.52 2.18 1.55 24.44 1.55 24.44s-2.11 14.46-1.6 24.52c0 .69.09 1.35.15 2l-1.82.28c-2.76 6.2 8.61 57.93 10.16 62.28a41.396 41.396 0 011.72 10.55s-1 3.68-.17 5.69a13.826 13.826 0 011 3.85s-.68 3.34.35 5.52c1.03 2.18-.17 6-.17 6s-.34 15.07-3.44 23.27a13.396 13.396 0 002.15 13.28c.216.285.449.555.7.81 0 0 17.1.14 20.11 0h.39c1.21-.17 4.31-13.73 1.55-20.26-2.76-6.53-.34-14.57-.34-14.57v-11.88s3.1-2.86 0-9c-3.1-6.14-2.59-8-2.59-8s3.45-9.88-.17-13.06c-3.62-3.18.69-15.24.69-15.24l1.22-40.2a15.794 15.794 0 00-1.95-.5c-.07-.66-.14-1.34-.21-2.06-.71-7.28-1.32-17.18.26-20 1.58-2.82 2.34-27.44 2.59-44.55l15.76.6c.33 8 .68 15.3.9 16.23.52 2.18 1.56 24.44 1.56 24.44s-2.12 14.46-1.61 24.52c0 .69.09 1.35.15 2l-1.82.28c-2.76 6.2 8.61 57.93 10.16 62.28a41.629 41.629 0 011.73 10.55s-1 3.68-.18 5.69a13.826 13.826 0 011 3.85s-.68 3.34.35 5.52c1.03 2.18-.17 6-.17 6s-.34 15.07-3.44 23.27a13.398 13.398 0 002.22 13.26c.216.285.449.555.7.81 0 0 17.1.14 20.11 0h.39c1.21-.17 4.31-13.73 1.55-20.26-2.76-6.53-.34-14.57-.34-14.57v-11.86s3.1-2.86 0-9c-3.1-6.14-2.59-8-2.59-8s3.45-9.88-.17-13.06c-3.62-3.18.69-15.24.69-15.24l1.24-40.2a15.47 15.47 0 00-2-.5c-.07-.66-.14-1.34-.21-2.06-.71-7.28-1.32-17.18.26-20 1.27-2.31 2-17.19 2.33-31.72 0-1 0-2 .08-3a155.156 155.156 0 0021.58-2.42s-8.43-29.81-5.85-34.66c1.11-2.09-.49-13.22-2.68-25.21a17.518 17.518 0 0010.78 3.9c3.77 7.25 15.24 23.93 21.7 26.5 7.58 3 1.89-23.6-1.72-27.45a32.409 32.409 0 01-4.28-6.87c.1-.12.21-.22.31-.33.1-.11.18-28.3-1.55-27.79-1.73.51-3.79-4.19-3.79-4.19l-5.34-46.87-2.24-19.62c1.87 1.38 4.09 2.26 6 3.63 5.2 3.81 6.9 10.5 9.18 16.42 1.88 4.87 4.52 9.7 8.85 12.76 4.33 3.06 10.68 3.87 15 .77 4-2.91 5.18-8.16 6.06-12.95 7.26 2.55 16.07-4.27 15.13-11.72-.23-1.84-.91-3.85.05-5.46 1.92-3.18 8-1.33 10-4.47.34-.543.51-1.171.5-1.81.03-.14.04-.2.04-.27zm-97.11 25.78c-.11 1.79 2.35 16.17 4.35 27.55-1.64-7.09-4.93-14.66-11.41-19.85 0 0 0-.36-.08-1h.08s-.27-2.86-.31-6.93c.012-3.608.279-7.21.8-10.78V415h-.13c0-.3.08-.61.13-.91a32.498 32.498 0 012.43-8.74 24.183 24.183 0 011.85-3.14c1.07 9.67 2.39 22.08 2.29 23.89zm5.38 33.32c.88 4.91 1.51 8.36 1.51 8.36l5.31 36.46v.17c-2.86-15.39-6.51-31.61-6.51-31.61a63.01 63.01 0 00-.31-13.38z" fill="url(#paint0_linear_24_414)"/><path d="M843.83 324.6c-1-9.24-11-17.21-8-26 1.63-4.79 6.73-7.72 8.45-12.48 1.14-3.14.63-6.59.64-9.93.01-3.34.79-7.07 3.57-8.92 6-4 13.72 4.23 20.72 2.55a36.753 36.753 0 004.93-2.1c8.17-3.25 17.41 2.67 22 10.15s6.31 16.4 10.25 24.26a19.894 19.894 0 006.06 7.71c2.72 1.88 6.44 2.59 9.38 1.09l11.45 25.5c3 6.57 6.44 13.69 13 16.58 2.94 1.29 6.22 1.58 9.26 2.63a19.994 19.994 0 0113 15.15c.39 2.24.4 4.56 1.19 6.69 2.55 6.88 11.32 8.42 17.71 12a24.764 24.764 0 019 8.71c1 1.73 1.86 4 .79 5.7-1.93 3.12-7.8 1.28-9.66 4.45-.94 1.6-.28 3.6 0 5.44.91 7.41-7.62 14.2-14.64 11.66-.85 4.77-2 10-5.86 12.89-4.15 3.1-10.3 2.28-14.49-.76-4.19-3.04-6.73-7.85-8.55-12.7-2.21-5.9-3.86-12.56-8.89-16.35-1.82-1.36-4-2.24-5.78-3.61-4-3.06-6-8.11-7.43-13-1.85-6.1-3.32-12.37-6-18.13s-6.92-11.12-12.73-13.75c-5.45-2.45-11.73-2.29-17.36-4.28-9.69-3.42-16.86-11.57-26.5-15.41a42.881 42.881 0 01-8.7-4.92c-4.85-3.19-6.17-5.04-6.81-10.82z" fill="#3F3D56"/><path opacity=".1" d="M844.73 284.16c.206-.391.387-.795.54-1.21 1.13-3.14.63-6.59.64-9.93a17.783 17.783 0 01.31-3.32 14.007 14.007 0 00-1.31 6.32c-.01 2.69.31 5.51-.18 8.14zm123.28 151.03c-4.15 3.09-10.3 2.28-14.49-.77-4.19-3.05-6.74-7.84-8.51-12.71-2.21-5.9-3.85-12.56-8.89-16.35-1.81-1.36-4-2.25-5.77-3.61-4-3.06-6-8.11-7.44-12.95-1.85-6.1-3.31-12.37-6-18.13s-6.91-11.12-12.73-13.75c-5.44-2.45-11.72-2.29-17.35-4.28-9.7-3.42-16.87-11.57-26.5-15.41a43.43 43.43 0 01-8.71-4.92c-4.74-3.27-6-5.12-6.7-10.89-1-8.66-9.8-16.21-8.43-24.37-.223.441-.42.895-.59 1.36-3 8.8 7 16.77 8 26 .65 5.77 2 7.62 6.7 10.89a43.43 43.43 0 008.71 4.92c9.63 3.84 16.8 12 26.5 15.41 5.63 2 11.91 1.83 17.35 4.28 5.82 2.63 10 8 12.73 13.75 2.73 5.75 4.19 12 6 18.13 1.47 4.84 3.4 9.89 7.44 12.95 1.81 1.36 4 2.25 5.77 3.61 5 3.79 6.68 10.45 8.89 16.35 1.82 4.85 4.37 9.65 8.56 12.69 4.19 3.04 10.34 3.86 14.49.77 2.65-2 4-5.05 4.89-8.32a12.276 12.276 0 01-3.92 5.35zm20.55-29.99a4.217 4.217 0 00-.48 2.34c2.26-2.23 7.36-.92 9.14-3.79a3.653 3.653 0 00.46-2.35c-2.32 2.2-7.42.89-9.12 3.8zm-14.69 17.1c-.19 1-.38 2.07-.62 3.11 6.12 1.91 13.19-3 14.19-9.2-2.43 4.77-8.43 7.96-13.57 6.09z" fill="#412381"/><path d="M856.75 329.41s3.33 6.72-6.5 6.86c-9.83.14 6.33 43.64 6.33 43.64l16.34 20.8 20.33-11 1.17-30.34 1.5-18.33s-19-6.17-15.5-14.33-23.67 2.7-23.67 2.7z" fill="#FBBEBE"/><path d="M915.76 506.77s12 11.81 26-3.86l-10.75-11.41h-13.6l-1.65 15.27z" fill="#633ABA"/><path opacity=".1" d="M917.06 491.5l-1.65 15.27s12 11.81 26-3.86" fill="#412381"/><path d="M937.25 493.58s4.83 12.67 8.33 16.5 9 30.33 1.67 27.33-21.33-25.33-22.17-29.16c-.84-3.83-1.16-14.67-1.16-14.67h13.33z" fill="#FBBEBE"/><path d="M832.42 558.58l64.66 2.5-7.5-27.34-32.57-.66-24.59 25.5z" fill="#633ABA"/><path opacity=".1" d="M841.41 558.58l64.67 2.5-7.5-27.34-32.58-.66-24.59 25.5z" fill="#412381"/><path d="M853.58 603.71c-1.53 2.85-.94 12.71-.25 20 .44 4.64.92 8.21.92 8.21s-24.17 7.5-27.83 1c-.93-1.65-1.39-4.54-1.55-7.93-.5-10 1.55-24.41 1.55-24.41s-1-22.16-1.5-24.33c-.2-.87-.51-3.63-.81-6.62-.44-4.44-.86-9.38-.86-9.38l33-17.5s0 3.28-.06 8.33c-.18 15.86-.71 49.13-2.61 52.63z" fill="#FBBEBE"/><path opacity=".1" d="M854.25 631.92s-24.17 7.5-27.83 1c-.93-1.65-1.39-4.54-1.55-7.93 5-.76 20.22-2.86 28.46-1.28.44 4.64.92 8.21.92 8.21z" fill="#412381"/><path d="M855.08 757.92h-.38c-2.91.11-19.45 0-19.45 0a8.947 8.947 0 01-.68-.8 13.637 13.637 0 01-2.15-13.2c3-8.17 3.33-23.17 3.33-23.17s1.17-3.83.17-6c-1-2.17-.34-5.5-.34-5.5a14.264 14.264 0 00-1-3.83c-.83-2 .17-5.67.17-5.67a42.5 42.5 0 00-1.67-10.5c-1.5-4.33-12.5-55.83-9.83-62 0 0 23.33-4 32.17-1l-1.17 40s-4.17 12-.67 15.17.17 13 .17 13-.5 1.83 2.5 8 0 9 0 9v11.83s-2.33 8 .33 14.5-.33 19.96-1.5 20.17z" fill="#3F3D56"/><path d="M900.87 603.71c-1.53 2.85-.94 12.71-.25 20 .44 4.64.92 8.21.92 8.21s-24.17 7.5-27.83 1c-.93-1.65-1.39-4.54-1.55-7.93-.5-10 1.55-24.41 1.55-24.41s-1-22.16-1.5-24.33c-.27-1.17-.74-12.33-1.11-22.34-.31-8.54-.56-16.26-.56-16.26l33 5.1s0 14.51-.41 29.42c-.36 14.46-1.03 29.28-2.26 31.54z" fill="#FBBEBE"/><path opacity=".1" d="M901.54 631.92s-24.17 7.5-27.83 1c-.93-1.65-1.39-4.54-1.55-7.93 5-.76 20.22-2.86 28.46-1.28.44 4.64.92 8.21.92 8.21z" fill="#412381"/><path d="M902.37 757.92h-.38c-2.91.11-19.45 0-19.45 0a8.947 8.947 0 01-.68-.8 13.642 13.642 0 01-2.15-13.2c3-8.21 3.3-23.21 3.3-23.21s1.17-3.83.17-6c-1-2.17-.34-5.5-.34-5.5a14.264 14.264 0 00-1-3.83c-.83-2 .17-5.67.17-5.67a42.5 42.5 0 00-1.67-10.5c-1.5-4.33-12.5-55.83-9.83-62 0 0 23.33-4 32.17-1l-1.17 40s-4.17 12-.67 15.17.17 13 .17 13-.5 1.83 2.5 8 0 9 0 9v11.83s-2.33 8 .33 14.5-.3 20-1.47 20.21z" fill="#3F3D56"/><path opacity=".1" d="M869.75 337.27c12.979 0 23.5-10.521 23.5-23.5s-10.521-23.5-23.5-23.5-23.5 10.521-23.5 23.5 10.521 23.5 23.5 23.5z" fill="#412381"/><path d="M869.75 336.27c12.979 0 23.5-10.521 23.5-23.5s-10.521-23.5-23.5-23.5-23.5 10.521-23.5 23.5 10.521 23.5 23.5 23.5z" fill="#FBBEBE"/><path opacity=".1" d="M823.25 560.25l33-17.5s0 3.28-.06 8.33c-4.82 2.88-12.09 7.21-19.08 11.3-3.8 2.23-7.51 4.39-10.69 6.2-.739.401-1.512.736-2.31 1-.44-4.39-.86-9.33-.86-9.33zm80.29-17.54s0 14.51-.41 29.42h-.12a55.421 55.421 0 01-7.39-.23c-4.31-.46-7.76-1.6-9-3.86-2.51-4.4-9.54-10-15.48-14.17-.31-8.54-.56-16.26-.56-16.26l32.96 5.1z" fill="#412381"/><path d="M897.4 415.62a95.216 95.216 0 00-.48 19.63c15.16 12.5 12.33 38.83 12.33 38.83s11.67 53.34 9.17 58.17c-2.5 4.83 5.66 34.5 5.66 34.5a145.51 145.51 0 01-21.07 2.42 55.421 55.421 0 01-7.39-.23c-4.31-.46-7.76-1.6-9-3.86-4.66-8.16-24.83-20.33-24.83-20.33s-12.78 7.66-24.68 14.63c-3.8 2.23-7.51 4.39-10.69 6.2a19.833 19.833 0 01-8.35 2.29c-14.15 1.05-33-7.81-30-10.95 3.67-3.84 21.84-71.17 21.84-71.17s9.16-41.67 17.16-47.5a8.644 8.644 0 003-4.19c2.74-7.61-1.84-19.81-1.84-19.81s-25.83-31.83-24.67-33.67c1.16-1.84 1.17-11.66 1.17-11.66s3.17-15.5 5-23 15-9.34 18.83-8.67c3.83.67 12.49 3 16.15 0 3.66-3 9.84 1.17 9.84 1.17l15.18 4.18 13.65-8s13.68.7 14.85 2.53c1.17 1.83 19.17 5.34 19.17 5.34 9.16 6.16 8.83 35.5 8.83 35.5s-22 19.16-26.5 29a33.05 33.05 0 00-2.33 8.65z" fill="#633ABA"/><path d="M921.25 373.91l5 4 5.17 46.5 5.16 46.67s2 4.67 3.67 4.17 1.5 27.66 1.5 27.66-19.14-11.77-26 3.86l-5.34-37.69s-6.84-38.5-6.67-41.5c.17-3-3.5-35.5-3.5-35.5l21.01-18.17zm-114 2.17l-3.67 4.5s.34 19.33-2.5 24c-2.84 4.67 7.84 32 11.84 30.33 4-1.67 13-44.33 13-44.83s-18.67-14-18.67-14z" fill="#633ABA"/><path d="M806.92 403.58s-11.67 11.83-10.84 17.5c.83 5.67 12 23.48 28 13.91 0 0 14.84-27.91-17.16-31.41z" fill="#633ABA"/><path opacity=".1" d="M854.7 757.95c-2.91.11-19.45 0-19.45 0a8.947 8.947 0 01-.68-.8c4.23-1.44 13.37-3.6 20.13.8zm47.31 0c-2.91.11-19.45 0-19.45 0a8.947 8.947 0 01-.68-.8c4.21-1.44 13.35-3.6 20.13.8zm-63.72-293.13c-2.55 24.46-1.71 73-1.18 94.56-3.8 2.23-7.51 4.39-10.69 6.2a19.833 19.833 0 01-8.35 2.29c-1.06-6.52 13.62-73.49 20.22-103.05zm3.12-13.88c-.07.35-1.28 5.67-3.12 13.88.72-7.01 1.72-12.04 3.12-13.88zm40.6-2.64s14.17 89-27.79 100c-.01-.04 29.03-4.45 27.79-100z" fill="#412381"/><path opacity=".1" d="M903.01 569.17a55.421 55.421 0 01-7.39-.23L884.3 447.25c7.22 4.72 15.86 91.08 18.71 121.92zm-50.76-270.22a6.178 6.178 0 012.23.23 9.73 9.73 0 012.82 2.12 10.052 10.052 0 009.54 1.85c1.14-.51 2.35-.847 3.59-1 1.91 0 3.56 1.4 4.55 3 .99 1.6 1.5 3.5 2.35 5.21.85 1.71 2.21 3.33 4.08 3.75a7.132 7.132 0 012.6.6c.503.409.89.944 1.12 1.55 1.56 3.37 2.8 7.35 6.13 9a9.165 9.165 0 003.91.85 8.167 8.167 0 004-.72 7.656 7.656 0 002.94-2.93c2.08-3.44 2.32-7.7 1.83-11.69a32.171 32.171 0 00-5.23-14.06 29.345 29.345 0 00-26.85-12.39 37.396 37.396 0 00-5.35 1c-6.36 1.7-12.6 4.88-16.46 10.21a34.567 34.567 0 01-3.07 3.78c1.75-.17 3.51-.32 5.27-.36z" fill="#412381"/><path d="M852.25 297.95a6.178 6.178 0 012.23.23 9.73 9.73 0 012.82 2.12 10.052 10.052 0 009.54 1.85c1.14-.51 2.35-.847 3.59-1 1.91 0 3.56 1.4 4.55 3 .99 1.6 1.5 3.5 2.35 5.21.85 1.71 2.21 3.33 4.08 3.75a7.132 7.132 0 012.6.6c.503.409.89.944 1.12 1.55 1.56 3.37 2.8 7.35 6.13 9a9.165 9.165 0 003.91.85 8.167 8.167 0 004-.72 7.656 7.656 0 002.94-2.93c2.08-3.44 2.32-7.7 1.83-11.69a32.171 32.171 0 00-5.23-14.06 29.345 29.345 0 00-26.85-12.39 37.396 37.396 0 00-5.35 1c-6.36 1.7-12.6 4.88-16.46 10.21a34.567 34.567 0 01-3.07 3.78c1.75-.17 3.51-.32 5.27-.36z" fill="#3F3D56"/><path opacity=".1" d="M826.75 353.91s1.17 9.34-2.83 11.67 2.83-11.67 2.83-11.67zm84.83 72.34s9.5-14 10.84-10c1.34 4-10.84 10-10.84 10zm.67 4.66s9.37-11.5 10.27-7c.9 4.5-10.27 7-10.27 7zm-27.52-13.69a15.208 15.208 0 01-9.42-3.1h-.82a14.801 14.801 0 01-10.29 3.87 14.59 14.59 0 01-10.67-4.28h-1.09a15.707 15.707 0 01-20.28-.37l-3.91-.07s4.58 12.2 1.84 19.81l66.83 1.19a95.216 95.216 0 01.48-19.63v-.09l-3.67-.07a15.38 15.38 0 01-9 2.74z" fill="#412381"/><path opacity=".1" d="M884.73 419.22a15.208 15.208 0 01-9.42-3.1h-.82a14.801 14.801 0 01-10.29 3.87 14.59 14.59 0 01-10.67-4.28h-1.09a15.707 15.707 0 01-20.28-.37l-3.91-.07s4.58 12.2 1.84 19.81l66.83 1.19a95.216 95.216 0 01.48-19.63v-.09l-3.67-.07a15.38 15.38 0 01-9 2.74z" fill="#412381"/><path d="M884.73 418.22a15.208 15.208 0 01-9.42-3.1h-.82a14.801 14.801 0 01-10.29 3.87 14.59 14.59 0 01-10.67-4.28h-1.09a15.707 15.707 0 01-20.28-.37l-3.91-.07s4.58 12.2 1.84 19.81l66.83 1.19a95.216 95.216 0 01.48-19.63v-.09l-3.67-.07a15.38 15.38 0 01-9 2.74z" fill="#3F3D56"/><path opacity=".1" d="M881.76 351.54s14.07.9 14.16 2.9c.09 2-14.16-2.9-14.16-2.9zm-34.18-8.53s-14.07.9-14.16 2.9c-.09 2 14.16-2.9 14.16-2.9zm53.77 40.89c-.14-.1-.28-.18-.42-.27 3.6 3.24 3 10.32-1.42 16.16s-11.13 8.27-15.21 5.65c.13.11.24.23.38.34 4 3.06 11 .66 15.62-5.38 4.62-6.04 5.07-13.43 1.05-16.5zm-77.29 15.14c-3.56-6.42-3.1-13.51.93-16.2-.15.07-.31.13-.46.21-4.42 2.46-5 9.83-1.34 16.47 3.66 6.64 10.26 10 14.68 7.58a3.93 3.93 0 00.42-.28c-4.41 2-10.67-1.36-14.23-7.78zm4.76-54.14l-1.29 2-3.29-1.75 1.73-2.66a7.251 7.251 0 012.85 2.41z" fill="#412381"/><path d="M807.92 418.91s2.93-13.78-1-18.16c-3.93-4.38-2.67-27.34 3.33-26.84s15 18.66 13.5 22.5-7.17 23.5-7.17 23.5l-8.66-1z" fill="#FBBEBE"/><path opacity=".1" d="M902.01 319.49a7.656 7.656 0 01-2.94 2.93 8.167 8.167 0 01-4 .72 9.165 9.165 0 01-3.91-.85c-3.33-1.66-4.57-5.64-6.13-9a3.675 3.675 0 00-1.02-1.58 7.148 7.148 0 00-2.57-.63c-1.87-.42-3.22-2.05-4.08-3.75-.86-1.7-1.37-3.58-2.35-5.21s-2.64-3.06-4.55-3a12.301 12.301 0 00-3.59 1.05 10.085 10.085 0 01-9.54-1.86 9.73 9.73 0 00-2.82-2.12 6.178 6.178 0 00-2.23-.23c-1.15 0-2.29.11-3.44.2a25.19 25.19 0 01-1.83 2.14c1.75-.15 3.51-.3 5.27-.34a6.178 6.178 0 012.23.23 9.73 9.73 0 012.82 2.12 10.076 10.076 0 009.54 1.86 12.301 12.301 0 013.59-1.05c1.91 0 3.56 1.4 4.55 3 .99 1.6 1.5 3.5 2.35 5.21.85 1.71 2.21 3.33 4.08 3.75.888.048 1.76.262 2.57.63.503.409.89.944 1.12 1.55 1.56 3.37 2.8 7.35 6.13 9a9.165 9.165 0 003.91.85 8.167 8.167 0 004-.72 7.656 7.656 0 002.94-2.93 16.584 16.584 0 002-9.26 15.277 15.277 0 01-2.1 7.29z" fill="#412381"/><path d="M812.35 429.84c4.971 0 9-2.731 9-6.1 0-3.369-4.029-6.1-9-6.1-4.97 0-9 2.731-9 6.1 0 3.369 4.03 6.1 9 6.1z" fill="#633ABA"/><path d="M518.99 763.29c170.38 0 308.5-138.12 308.5-308.5s-138.12-308.5-308.5-308.5-308.5 138.12-308.5 308.5 138.12 308.5 308.5 308.5z" fill="#5346F6"/><path d="M680.86 609.82c0 48.7-76.56 4.16-158.64 4.16-82.08 0-165.1 42.7-165.1-6 0-27.77 26.46-66.39 64.42-94.44 28.6-21.14 63.72-36.28 99-36.28 36.28 0 71.82 16.39 100.17 38.89 35.78 28.37 60.15 66.49 60.15 93.67z" fill="#444053"/><path d="M620.7 516.13c-43.63-6.57-122.54-14.58-199.16-2.61 28.6-21.14 63.72-36.28 99-36.28 36.27 0 71.81 16.39 100.16 38.89z" fill="#F6F8FB"/><path opacity=".25" d="M357.12 237.02s-92.93 59.41-92.17 152.34c.76 92.93 92.17-152.34 92.17-152.34z" fill="#444053"/><path d="M827.37 69.23s-84.2-5.07-74.27 53.93c0 0-2 10.42 7.48 15.16 0 0 .15-4.37 8.63-2.89 3.022.506 6.093.653 9.15.44a19 19 0 0011.18-4.62s23.67-9.77 32.88-48.46c0 0 6.81-8.44 6.54-10.6l-14.21 6.06s4.85 10.25 1 18.77c0 0-.46-18.39-3.19-18-.55.09-7.38 3.55-7.38 3.55s8.35 17.86 2 30.83c0 0 2.39-22-4.66-29.54l-10 5.84s9.76 18.44 3.14 33.49c0 0 1.7-23.08-5.24-32.07l-9.07 7.07s9.17 18.18 3.58 30.66c0 0-.73-26.87-5.54-28.9 0 0-7.93 7-9.14 9.87 0 0 6.28 13.19 2.39 20.15 0 0-2.39-17.9-4.35-18 0 0-7.9 11.86-8.73 20 0 0 .35-12.1 6.81-21.13 0 0-7.64 1.31-12.09 6.27 0 0 1.23-8.39 14-9.12 0 0 6.53-9 8.28-9.54 0 0-12.75-1.07-20.48 2.36 0 0 6.8-7.91 22.81-4.32l9-7.3s-16.78-2.3-23.9.24c0 0 8.19-7 26.31-1.9l9.75-5.83s-14.31-3.08-22.84-2c0 0 9-4.85 25.69.41l7-3.13s-10.49-2.06-13.56-2.38c-3.07-.32-3.23-1.18-3.23-1.18a36.35 36.35 0 0119.73 2.29s14.78-5.55 14.53-6.48z" fill="#26BB8F"/><path d="M741.01 43s-38-2.3-33.56 24.36c0 0-.89 4.71 3.38 6.85 0 0 .06-2 3.9-1.3 1.364.225 2.75.292 4.13.2a8.691 8.691 0 005.06-2.09s10.69-4.42 14.85-21.9c0 0 3.08-3.81 3-4.79l-6.42 2.74s2.2 4.63.47 8.48c0 0-.21-8.31-1.44-8.11-.25 0-3.34 1.6-3.34 1.6s3.78 8.07.93 13.93c0 0 1.08-9.94-2.1-13.35l-4.52 2.64s4.41 8.34 1.42 15.14c0 0 .76-10.43-2.37-14.49l-4.1 3.19s4.14 8.21 1.62 13.85c0 0-.33-12.14-2.51-13.06 0 0-3.58 3.16-4.13 4.46 0 0 2.84 6 1.08 9.11 0 0-1.08-8.09-2-8.12 0 0-3.57 5.35-3.94 9a19.473 19.473 0 013.07-9.55 10.708 10.708 0 00-5.46 2.83s.55-3.79 6.34-4.12c0 0 2.95-4.06 3.74-4.31 0 0-5.76-.48-9.25 1.07 0 0 3.07-3.58 10.31-2l4-3.29s-7.58-1-10.8.1c0 0 3.7-3.16 11.89-.85l4.4-2.64s-6.46-1.39-10.32-.89c0 0 4.07-2.19 11.61.19l3.15-1.42s-4.74-.93-6.12-1.07-1.47-.53-1.47-.53a16.39 16.39 0 018.9 1s6.71-2.44 6.6-2.86z" fill="#FFC107"/><path opacity=".05" d="M1073.09 730.01c14.87 0 26.93-2.037 26.93-4.55s-12.06-4.55-26.93-4.55-26.93 2.037-26.93 4.55 12.06 4.55 26.93 4.55zM46.77 805.7c14.873 0 26.93-2.037 26.93-4.55s-12.057-4.55-26.93-4.55-26.93 2.037-26.93 4.55 12.057 4.55 26.93 4.55z" fill="#5346F6"/><path opacity=".1" d="M203.1 811.41c14.873 0 26.93-2.037 26.93-4.55s-12.057-4.55-26.93-4.55-26.93 2.037-26.93 4.55 12.057 4.55 26.93 4.55z" fill="#5346F6"/><path d="M1014.15 781.02c22.21 0 40.21-3.045 40.21-6.8 0-3.756-18-6.8-40.21-6.8-22.207 0-40.21 3.044-40.21 6.8 0 3.755 18.003 6.8 40.21 6.8z" fill="#5346F6"/><path d="M1030.77 763.11a11.728 11.728 0 003.84-5.79c.49-2.29-.49-5.05-2.68-5.89-2.46-.94-5.09.77-7.08 2.49-1.99 1.72-4.28 3.68-6.89 3.32a10.405 10.405 0 002.91-4.478c.57-1.719.68-3.556.33-5.332a4.041 4.041 0 00-.9-2c-1.37-1.46-3.84-.84-5.48.31-5.2 3.66-6.65 10.72-6.68 17.08-.52-2.29-.08-4.68-.09-7-.01-2.32-.66-5-2.64-6.23a8.014 8.014 0 00-4-.94c-2.34-.09-4.94.14-6.54 1.85-2 2.13-1.47 5.69.26 8 1.73 2.31 4.35 3.81 6.76 5.42a15.036 15.036 0 014.84 4.61c.15.265.27.543.36.83h14.65a40.642 40.642 0 009.03-6.25z" fill="#5346F6"/><path d="M59.34 679.26s5.49 7.18-2.54 18c-8.03 10.82-14.65 20-12 26.76 0 0 12.11-20.14 22-20.43 9.89-.29 3.38-12.22-7.46-24.33z" fill="#26BB8F"/><path opacity=".1" d="M59.34 679.26a8.992 8.992 0 011.12 2.25c9.62 11.3 14.74 21.85 5.5 22.11-8.62.25-19 15.65-21.43 19.54.085.302.185.599.3.89 0 0 12.11-20.14 22-20.43 9.89-.29 3.35-12.25-7.49-24.36z" fill="#412381"/><path d="M69.55 688.41c0 2.53-.29 4.58-.64 4.58-.35 0-.63-2-.63-4.58s.35-1.34.71-1.34.56-1.19.56 1.34z" fill="#FFD037"/><path d="M73.01 691.43c-2.22 1.21-4.15 1.94-4.32 1.63-.17-.31 1.5-1.53 3.72-2.74 2.22-1.21 1.34-.33 1.51 0 .17.33 1.35-.1-.91 1.11z" fill="#FFD037"/><path d="M30.32 679.26s-5.49 7.18 2.53 18 14.65 20 12 26.76c0 0-12.12-20.14-22-20.43-9.88-.29-3.38-12.22 7.47-24.33z" fill="#26BB8F"/><path opacity=".1" d="M30.32 679.26a8.62 8.62 0 00-1.12 2.25c-9.62 11.3-14.75 21.85-5.5 22.11 8.61.25 19 15.65 21.42 19.54a9.333 9.333 0 01-.29.89s-12.12-20.14-22-20.43c-9.88-.29-3.36-12.25 7.49-24.36z" fill="#412381"/><path d="M20.11 688.41c0 2.53.28 4.58.63 4.58s.63-2 .63-4.58-.35-1.34-.7-1.34-.56-1.19-.56 1.34z" fill="#FFD037"/><path d="M16.6 691.43c2.22 1.21 4.16 1.94 4.33 1.63.17-.31-1.5-1.53-3.72-2.74-2.22-1.21-1.35-.33-1.51 0-.16.33-1.32-.1.9 1.11z" fill="#FFD037"/><path opacity=".05" d="M21.86 723.11s15.36-.47 20-3.77c4.64-3.3 23.63-7.23 24.78-2 1.15 5.23 23.08 26.3 5.74 26.44-17.34.14-40.29-2.71-44.91-5.52-4.62-2.81-5.61-15.15-5.61-15.15z" fill="#5346F6"/><path opacity=".2" d="M72.67 741.99c-17.34.14-40.29-2.71-44.91-5.52-3.52-2.14-4.92-9.83-5.39-13.38h-.51s1 12.39 5.59 15.2c4.59 2.81 27.57 5.66 44.91 5.52 5 0 6.73-1.83 6.64-4.46-.7 1.61-2.6 2.61-6.33 2.64z" fill="#412381"/><path d="M409.31 414.34c5.87-.33 33.5-2.41 51.05-12.42a19.894 19.894 0 019.27-2.73c5.58-.16 12 2.17 7.89 15.21-6.66 21.33-45.33 45.33-69.33 44-23.08-1.28-50.46-10.58-68.54-43.28a20.007 20.007 0 01-2.47-10.29c.21-6.6 2.61-14.87 15-5.65 16.74 12.45 48.5 14.81 54.87 15.16.753.04 1.507.04 2.26 0zm222 0c5.87-.33 33.5-2.41 51.05-12.42a19.894 19.894 0 019.27-2.73c5.58-.16 12 2.17 7.89 15.21-6.66 21.33-45.33 45.33-69.33 44-23.08-1.28-50.46-10.58-68.54-43.28a20.007 20.007 0 01-2.47-10.29c.21-6.6 2.61-14.87 15-5.65 16.74 12.45 48.5 14.81 54.87 15.16.753.04 1.507.04 2.26 0z" fill="#444053"/></g><defs><linearGradient id="paint0_linear_24_414" x1="892.14" y1="757.99" x2="892.14" y2="263.95" gradientUnits="userSpaceOnUse"><stop stop-color="gray" stop-opacity=".25"/><stop offset=".54" stop-color="gray" stop-opacity=".12"/><stop offset="1" stop-color="gray" stop-opacity=".1"/></linearGradient><clipPath id="clip0_24_414"><path fill="#fff" d="M0 0h1100.02v811.41H0z"/></clipPath></defs></svg>