<svg width="154" height="53" viewBox="0 0 154 53" fill="none" xmlns="http://www.w3.org/2000/svg">
<path d="M13.12 28.5L7.864 18.96H6.388V28.5H0.232V3.228H10.564C12.556 3.228 14.248 3.576 15.64 4.272C17.056 4.968 18.112 5.928 18.808 7.152C19.504 8.352 19.852 9.696 19.852 11.184C19.852 12.864 19.372 14.364 18.412 15.684C17.476 17.004 16.084 17.94 14.236 18.492L20.068 28.5H13.12ZM6.388 14.604H10.204C11.332 14.604 12.172 14.328 12.724 13.776C13.3 13.224 13.588 12.444 13.588 11.436C13.588 10.476 13.3 9.72 12.724 9.168C12.172 8.616 11.332 8.34 10.204 8.34H6.388V14.604ZM42.6524 18.132C42.6524 18.708 42.6164 19.308 42.5444 19.932H28.6124C28.7084 21.18 29.1044 22.14 29.8004 22.812C30.5204 23.46 31.3964 23.784 32.4284 23.784C33.9644 23.784 35.0324 23.136 35.6324 21.84H42.1844C41.8484 23.16 41.2364 24.348 40.3484 25.404C39.4844 26.46 38.3924 27.288 37.0724 27.888C35.7524 28.488 34.2764 28.788 32.6444 28.788C30.6764 28.788 28.9244 28.368 27.3884 27.528C25.8524 26.688 24.6524 25.488 23.7884 23.928C22.9244 22.368 22.4924 20.544 22.4924 18.456C22.4924 16.368 22.9124 14.544 23.7524 12.984C24.6164 11.424 25.8164 10.224 27.3524 9.384C28.8884 8.544 30.6524 8.124 32.6444 8.124C34.5884 8.124 36.3164 8.532 37.8284 9.348C39.3404 10.164 40.5164 11.328 41.3564 12.84C42.2204 14.352 42.6524 16.116 42.6524 18.132ZM36.3524 16.512C36.3524 15.456 35.9924 14.616 35.2724 13.992C34.5524 13.368 33.6524 13.056 32.5724 13.056C31.5404 13.056 30.6644 13.356 29.9444 13.956C29.2484 14.556 28.8164 15.408 28.6484 16.512H36.3524ZM55.98 13.524H52.668V28.5H46.512V13.524H44.28V8.412H46.512V7.836C46.512 5.364 47.22 3.492 48.636 2.22C50.052 0.923999 52.128 0.275999 54.864 0.275999C55.32 0.275999 55.656 0.287998 55.872 0.311998V5.532C54.696 5.46 53.868 5.628 53.388 6.036C52.908 6.444 52.668 7.176 52.668 8.232V8.412H55.98V13.524ZM77.8086 18.132C77.8086 18.708 77.7726 19.308 77.7006 19.932H63.7686C63.8646 21.18 64.2606 22.14 64.9566 22.812C65.6766 23.46 66.5526 23.784 67.5846 23.784C69.1206 23.784 70.1886 23.136 70.7886 21.84H77.3406C77.0046 23.16 76.3926 24.348 75.5046 25.404C74.6406 26.46 73.5486 27.288 72.2286 27.888C70.9086 28.488 69.4326 28.788 67.8006 28.788C65.8326 28.788 64.0806 28.368 62.5446 27.528C61.0086 26.688 59.8086 25.488 58.9446 23.928C58.0806 22.368 57.6486 20.544 57.6486 18.456C57.6486 16.368 58.0686 14.544 58.9086 12.984C59.7726 11.424 60.9726 10.224 62.5086 9.384C64.0446 8.544 65.8086 8.124 67.8006 8.124C69.7446 8.124 71.4726 8.532 72.9846 9.348C74.4966 10.164 75.6726 11.328 76.5126 12.84C77.3766 14.352 77.8086 16.116 77.8086 18.132ZM71.5086 16.512C71.5086 15.456 71.1486 14.616 70.4286 13.992C69.7086 13.368 68.8086 13.056 67.7286 13.056C66.6966 13.056 65.8206 13.356 65.1006 13.956C64.4046 14.556 63.9726 15.408 63.8046 16.512H71.5086ZM87.2122 11.76C87.9322 10.656 88.8322 9.792 89.9122 9.168C90.9922 8.52 92.1922 8.196 93.5122 8.196V14.712H91.8202C90.2842 14.712 89.1322 15.048 88.3642 15.72C87.5962 16.368 87.2122 17.52 87.2122 19.176V28.5H81.0562V8.412H87.2122V11.76ZM102.611 11.76C103.331 10.656 104.231 9.792 105.311 9.168C106.391 8.52 107.591 8.196 108.911 8.196V14.712H107.219C105.683 14.712 104.531 15.048 103.763 15.72C102.995 16.368 102.611 17.52 102.611 19.176V28.5H96.4547V8.412H102.611V11.76ZM110.629 18.42C110.629 16.356 111.013 14.544 111.781 12.984C112.573 11.424 113.641 10.224 114.985 9.384C116.329 8.544 117.829 8.124 119.485 8.124C120.901 8.124 122.137 8.412 123.193 8.988C124.273 9.564 125.101 10.32 125.677 11.256V8.412H131.833V28.5H125.677V25.656C125.077 26.592 124.237 27.348 123.157 27.924C122.101 28.5 120.865 28.788 119.449 28.788C117.817 28.788 116.329 28.368 114.985 27.528C113.641 26.664 112.573 25.452 111.781 23.892C111.013 22.308 110.629 20.484 110.629 18.42ZM125.677 18.456C125.677 16.92 125.245 15.708 124.381 14.82C123.541 13.932 122.509 13.488 121.285 13.488C120.061 13.488 119.017 13.932 118.153 14.82C117.313 15.684 116.893 16.884 116.893 18.42C116.893 19.956 117.313 21.18 118.153 22.092C119.017 22.98 120.061 23.424 121.285 23.424C122.509 23.424 123.541 22.98 124.381 22.092C125.245 21.204 125.677 19.992 125.677 18.456ZM142.443 1.86V28.5H136.287V1.86H142.443ZM22.84 52.5H16.684L6.388 36.912V52.5H0.232V27.228H6.388L16.684 42.888V27.228H22.84V52.5ZM46.2383 42.132C46.2383 42.708 46.2023 43.308 46.1303 43.932H32.1983C32.2943 45.18 32.6903 46.14 33.3863 46.812C34.1063 47.46 34.9823 47.784 36.0143 47.784C37.5503 47.784 38.6183 47.136 39.2183 45.84H45.7703C45.4343 47.16 44.8223 48.348 43.9343 49.404C43.0703 50.46 41.9783 51.288 40.6583 51.888C39.3383 52.488 37.8623 52.788 36.2303 52.788C34.2623 52.788 32.5103 52.368 30.9743 51.528C29.4383 50.688 28.2383 49.488 27.3743 47.928C26.5103 46.368 26.0783 44.544 26.0783 42.456C26.0783 40.368 26.4983 38.544 27.3383 36.984C28.2023 35.424 29.4023 34.224 30.9383 33.384C32.4743 32.544 34.2383 32.124 36.2303 32.124C38.1743 32.124 39.9023 32.532 41.4143 33.348C42.9263 34.164 44.1023 35.328 44.9423 36.84C45.8063 38.352 46.2383 40.116 46.2383 42.132ZM39.9383 40.512C39.9383 39.456 39.5783 38.616 38.8583 37.992C38.1383 37.368 37.2383 37.056 36.1583 37.056C35.1263 37.056 34.2503 37.356 33.5303 37.956C32.8343 38.556 32.4023 39.408 32.2343 40.512H39.9383ZM60.6819 47.28V52.5H57.5499C55.3179 52.5 53.5779 51.96 52.3299 50.88C51.0819 49.776 50.4579 47.988 50.4579 45.516V37.524H48.0099V32.412H50.4579V27.516H56.6139V32.412H60.6459V37.524H56.6139V45.588C56.6139 46.188 56.7579 46.62 57.0459 46.884C57.3339 47.148 57.8139 47.28 58.4859 47.28H60.6819ZM92.9469 32.412L87.5109 52.5H80.7069L77.5389 39.468L74.2629 52.5H67.4949L62.0229 32.412H68.1789L71.0229 46.776L74.4069 32.412H80.9229L84.3429 46.704L87.1509 32.412H92.9469ZM104.439 52.788C102.471 52.788 100.695 52.368 99.1105 51.528C97.5505 50.688 96.3145 49.488 95.4025 47.928C94.5145 46.368 94.0705 44.544 94.0705 42.456C94.0705 40.392 94.5265 38.58 95.4385 37.02C96.3505 35.436 97.5985 34.224 99.1825 33.384C100.767 32.544 102.543 32.124 104.511 32.124C106.479 32.124 108.255 32.544 109.839 33.384C111.423 34.224 112.671 35.436 113.583 37.02C114.495 38.58 114.951 40.392 114.951 42.456C114.951 44.52 114.483 46.344 113.547 47.928C112.635 49.488 111.375 50.688 109.767 51.528C108.183 52.368 106.407 52.788 104.439 52.788ZM104.439 47.46C105.615 47.46 106.611 47.028 107.427 46.164C108.267 45.3 108.687 44.064 108.687 42.456C108.687 40.848 108.279 39.612 107.463 38.748C106.671 37.884 105.687 37.452 104.511 37.452C103.311 37.452 102.315 37.884 101.523 38.748C100.731 39.588 100.335 40.824 100.335 42.456C100.335 44.064 100.719 45.3 101.487 46.164C102.279 47.028 103.263 47.46 104.439 47.46ZM124.372 35.76C125.092 34.656 125.992 33.792 127.072 33.168C128.152 32.52 129.352 32.196 130.672 32.196V38.712H128.98C127.444 38.712 126.292 39.048 125.524 39.72C124.756 40.368 124.372 41.52 124.372 43.176V52.5H118.216V32.412H124.372V35.76ZM145.891 52.5L139.771 44.076V52.5H133.615V25.86H139.771V40.584L145.855 32.412H153.451L145.099 42.492L153.523 52.5H145.891Z" fill="white"/>
</svg>
