<svg width="168" height="87" viewBox="0 0 168 87" fill="none" xmlns="http://www.w3.org/2000/svg">
	<path d="M15.12 44.5L9.864 34.96H8.388V44.5H2.232V19.228H12.564C14.556 19.228 16.248 19.576 17.64 20.272C19.056 20.968 20.112 21.928 20.808 23.152C21.504 24.352 21.852 25.696 21.852 27.184C21.852 28.864 21.372 30.364 20.412 31.684C19.476 33.004 18.084 33.94 16.236 34.492L22.068 44.5H15.12ZM8.388 30.604H12.204C13.332 30.604 14.172 30.328 14.724 29.776C15.3 29.224 15.588 28.444 15.588 27.436C15.588 26.476 15.3 25.72 14.724 25.168C14.172 24.616 13.332 24.34 12.204 24.34H8.388V30.604ZM44.6524 34.132C44.6524 34.708 44.6164 35.308 44.5444 35.932H30.6124C30.7084 37.18 31.1044 38.14 31.8004 38.812C32.5204 39.46 33.3964 39.784 34.4284 39.784C35.9644 39.784 37.0324 39.136 37.6324 37.84H44.1844C43.8484 39.16 43.2364 40.348 42.3484 41.404C41.4844 42.46 40.3924 43.288 39.0724 43.888C37.7524 44.488 36.2764 44.788 34.6444 44.788C32.6764 44.788 30.9244 44.368 29.3884 43.528C27.8524 42.688 26.6524 41.488 25.7884 39.928C24.9244 38.368 24.4924 36.544 24.4924 34.456C24.4924 32.368 24.9124 30.544 25.7524 28.984C26.6164 27.424 27.8164 26.224 29.3524 25.384C30.8884 24.544 32.6524 24.124 34.6444 24.124C36.5884 24.124 38.3164 24.532 39.8284 25.348C41.3404 26.164 42.5164 27.328 43.3564 28.84C44.2204 30.352 44.6524 32.116 44.6524 34.132ZM38.3524 32.512C38.3524 31.456 37.9924 30.616 37.2724 29.992C36.5524 29.368 35.6524 29.056 34.5724 29.056C33.5404 29.056 32.6644 29.356 31.9444 29.956C31.2484 30.556 30.8164 31.408 30.6484 32.512H38.3524ZM57.98 29.524H54.668V44.5H48.512V29.524H46.28V24.412H48.512V23.836C48.512 21.364 49.22 19.492 50.636 18.22C52.052 16.924 54.128 16.276 56.864 16.276C57.32 16.276 57.656 16.288 57.872 16.312V21.532C56.696 21.46 55.868 21.628 55.388 22.036C54.908 22.444 54.668 23.176 54.668 24.232V24.412H57.98V29.524ZM79.8086 34.132C79.8086 34.708 79.7726 35.308 79.7006 35.932H65.7686C65.8646 37.18 66.2606 38.14 66.9566 38.812C67.6766 39.46 68.5526 39.784 69.5846 39.784C71.1206 39.784 72.1886 39.136 72.7886 37.84H79.3406C79.0046 39.16 78.3926 40.348 77.5046 41.404C76.6406 42.46 75.5486 43.288 74.2286 43.888C72.9086 44.488 71.4326 44.788 69.8006 44.788C67.8326 44.788 66.0806 44.368 64.5446 43.528C63.0086 42.688 61.8086 41.488 60.9446 39.928C60.0806 38.368 59.6486 36.544 59.6486 34.456C59.6486 32.368 60.0686 30.544 60.9086 28.984C61.7726 27.424 62.9726 26.224 64.5086 25.384C66.0446 24.544 67.8086 24.124 69.8006 24.124C71.7446 24.124 73.4726 24.532 74.9846 25.348C76.4966 26.164 77.6726 27.328 78.5126 28.84C79.3766 30.352 79.8086 32.116 79.8086 34.132ZM73.5086 32.512C73.5086 31.456 73.1486 30.616 72.4286 29.992C71.7086 29.368 70.8086 29.056 69.7286 29.056C68.6966 29.056 67.8206 29.356 67.1006 29.956C66.4046 30.556 65.9726 31.408 65.8046 32.512H73.5086ZM89.2122 27.76C89.9322 26.656 90.8322 25.792 91.9122 25.168C92.9922 24.52 94.1922 24.196 95.5122 24.196V30.712H93.8202C92.2842 30.712 91.1322 31.048 90.3642 31.72C89.5962 32.368 89.2122 33.52 89.2122 35.176V44.5H83.0562V24.412H89.2122V27.76ZM104.611 27.76C105.331 26.656 106.231 25.792 107.311 25.168C108.391 24.52 109.591 24.196 110.911 24.196V30.712H109.219C107.683 30.712 106.531 31.048 105.763 31.72C104.995 32.368 104.611 33.52 104.611 35.176V44.5H98.4547V24.412H104.611V27.76ZM112.629 34.42C112.629 32.356 113.013 30.544 113.781 28.984C114.573 27.424 115.641 26.224 116.985 25.384C118.329 24.544 119.829 24.124 121.485 24.124C122.901 24.124 124.137 24.412 125.193 24.988C126.273 25.564 127.101 26.32 127.677 27.256V24.412H133.833V44.5H127.677V41.656C127.077 42.592 126.237 43.348 125.157 43.924C124.101 44.5 122.865 44.788 121.449 44.788C119.817 44.788 118.329 44.368 116.985 43.528C115.641 42.664 114.573 41.452 113.781 39.892C113.013 38.308 112.629 36.484 112.629 34.42ZM127.677 34.456C127.677 32.92 127.245 31.708 126.381 30.82C125.541 29.932 124.509 29.488 123.285 29.488C122.061 29.488 121.017 29.932 120.153 30.82C119.313 31.684 118.893 32.884 118.893 34.42C118.893 35.956 119.313 37.18 120.153 38.092C121.017 38.98 122.061 39.424 123.285 39.424C124.509 39.424 125.541 38.98 126.381 38.092C127.245 37.204 127.677 35.992 127.677 34.456ZM144.443 17.86V44.5H138.287V17.86H144.443ZM24.84 68.5H18.684L8.388 52.912V68.5H2.232V43.228H8.388L18.684 58.888V43.228H24.84V68.5ZM48.2383 58.132C48.2383 58.708 48.2023 59.308 48.1303 59.932H34.1983C34.2943 61.18 34.6903 62.14 35.3863 62.812C36.1063 63.46 36.9823 63.784 38.0143 63.784C39.5503 63.784 40.6183 63.136 41.2183 61.84H47.7703C47.4343 63.16 46.8223 64.348 45.9343 65.404C45.0703 66.46 43.9783 67.288 42.6583 67.888C41.3383 68.488 39.8623 68.788 38.2303 68.788C36.2623 68.788 34.5103 68.368 32.9743 67.528C31.4383 66.688 30.2383 65.488 29.3743 63.928C28.5103 62.368 28.0783 60.544 28.0783 58.456C28.0783 56.368 28.4983 54.544 29.3383 52.984C30.2023 51.424 31.4023 50.224 32.9383 49.384C34.4743 48.544 36.2383 48.124 38.2303 48.124C40.1743 48.124 41.9023 48.532 43.4143 49.348C44.9263 50.164 46.1023 51.328 46.9423 52.84C47.8063 54.352 48.2383 56.116 48.2383 58.132ZM41.9383 56.512C41.9383 55.456 41.5783 54.616 40.8583 53.992C40.1383 53.368 39.2383 53.056 38.1583 53.056C37.1263 53.056 36.2503 53.356 35.5303 53.956C34.8343 54.556 34.4023 55.408 34.2343 56.512H41.9383ZM62.6819 63.28V68.5H59.5499C57.3179 68.5 55.5779 67.96 54.3299 66.88C53.0819 65.776 52.4579 63.988 52.4579 61.516V53.524H50.0099V48.412H52.4579V43.516H58.6139V48.412H62.6459V53.524H58.6139V61.588C58.6139 62.188 58.7579 62.62 59.0459 62.884C59.3339 63.148 59.8139 63.28 60.4859 63.28H62.6819ZM94.9469 48.412L89.5109 68.5H82.7069L79.5389 55.468L76.2629 68.5H69.4949L64.0229 48.412H70.1789L73.0229 62.776L76.4069 48.412H82.9229L86.3429 62.704L89.1509 48.412H94.9469ZM106.439 68.788C104.471 68.788 102.695 68.368 101.111 67.528C99.5505 66.688 98.3145 65.488 97.4025 63.928C96.5145 62.368 96.0705 60.544 96.0705 58.456C96.0705 56.392 96.5265 54.58 97.4385 53.02C98.3505 51.436 99.5985 50.224 101.183 49.384C102.767 48.544 104.543 48.124 106.511 48.124C108.479 48.124 110.255 48.544 111.839 49.384C113.423 50.224 114.671 51.436 115.583 53.02C116.495 54.58 116.951 56.392 116.951 58.456C116.951 60.52 116.483 62.344 115.547 63.928C114.635 65.488 113.375 66.688 111.767 67.528C110.183 68.368 108.407 68.788 106.439 68.788ZM106.439 63.46C107.615 63.46 108.611 63.028 109.427 62.164C110.267 61.3 110.687 60.064 110.687 58.456C110.687 56.848 110.279 55.612 109.463 54.748C108.671 53.884 107.687 53.452 106.511 53.452C105.311 53.452 104.315 53.884 103.523 54.748C102.731 55.588 102.335 56.824 102.335 58.456C102.335 60.064 102.719 61.3 103.487 62.164C104.279 63.028 105.263 63.46 106.439 63.46ZM126.372 51.76C127.092 50.656 127.992 49.792 129.072 49.168C130.152 48.52 131.352 48.196 132.672 48.196V54.712H130.98C129.444 54.712 128.292 55.048 127.524 55.72C126.756 56.368 126.372 57.52 126.372 59.176V68.5H120.216V48.412H126.372V51.76ZM147.891 68.5L141.771 60.076V68.5H135.615V41.86H141.771V56.584L147.855 48.412H155.451L147.099 58.492L155.523 68.5H147.891Z" fill="white" />
</svg>
