<svg width="20" height="20" viewBox="0 0 31 31" fill="none" xmlns="http://www.w3.org/2000/svg">
<path d="M15.5122 30.4167C7.22767 30.4167 0.512192 23.7012 0.512192 15.4167C0.512192 7.13215 7.22767 0.416672 15.5122 0.416672C23.7967 0.416672 30.5122 7.13215 30.5122 15.4167C30.5122 23.7012 23.7967 30.4167 15.5122 30.4167ZM15.5122 2.04848C8.1691 2.04848 2.14399 8.07357 2.14399 15.4167C2.14399 22.7598 8.1691 28.7849 15.5122 28.7849C22.8553 28.7849 28.8804 22.7598 28.8804 15.4167C28.8804 8.07357 22.8553 2.04848 15.5122 2.04848Z" fill="white"/>
<path d="M15.1984 24.015L14.0687 22.8225L21.4118 15.4167L14.0687 8.01083L15.1984 6.81834L23.7967 15.4167L15.1984 24.015Z" fill="white"/>
<path d="M22.6042 16.2953H7.54148V14.538H22.6042V16.2953Z" fill="white"/>
</svg>
