<svg width="35" height="35" viewBox="0 0 35 35" fill="none" xmlns="http://www.w3.org/2000/svg">
<path d="M16 0C7.16337 0 0 7.16339 0 16C0 24.8366 7.16337 32 16 32C24.8366 32 32 24.8366 32 16C31.9999 7.16339 24.8364 0 16 0ZM11.7311 23.7353H8.21819V12.3859H11.7311V23.7353ZM9.95793 10.8996C8.81063 10.8996 7.88055 9.96193 7.88055 8.80545C7.88055 7.64883 8.81076 6.71123 9.95793 6.71123C11.1051 6.71123 12.0352 7.64883 12.0352 8.80545C12.0352 9.962 11.1052 10.8996 9.95793 10.8996ZM24.8959 23.7353H21.4V17.7778C21.4 16.1438 20.7794 15.2317 19.4873 15.2317C18.0812 15.2317 17.3466 16.1817 17.3466 17.7778V23.7353H13.9773V12.3859H17.3466V13.9145C17.3466 13.9145 18.3601 12.0397 20.7666 12.0397C23.1732 12.0397 24.896 13.5091 24.896 16.549L24.8959 23.7353Z" fill="url(#paint0_linear_16_287)"/>
<defs>
<linearGradient id="paint0_linear_16_287" x1="4.68628" y1="4.68629" x2="27.3137" y2="27.3137" gradientUnits="userSpaceOnUse">
<stop stop-color="#2489BE"/>
<stop offset="1" stop-color="#0575B3"/>
</linearGradient>
</defs>
</svg>
