<svg width="188" height="61" viewBox="0 0 188 61" fill="none" xmlns="http://www.w3.org/2000/svg">
<path d="M15.12 29L9.864 19.46H8.388V29H2.232V3.728H12.564C14.556 3.728 16.248 4.076 17.64 4.772C19.056 5.468 20.112 6.428 20.808 7.652C21.504 8.852 21.852 10.196 21.852 11.684C21.852 13.364 21.372 14.864 20.412 16.184C19.476 17.504 18.084 18.44 16.236 18.992L22.068 29H15.12ZM8.388 15.104H12.204C13.332 15.104 14.172 14.828 14.724 14.276C15.3 13.724 15.588 12.944 15.588 11.936C15.588 10.976 15.3 10.22 14.724 9.668C14.172 9.116 13.332 8.84 12.204 8.84H8.388V15.104ZM44.6524 18.632C44.6524 19.208 44.6164 19.808 44.5444 20.432H30.6124C30.7084 21.68 31.1044 22.64 31.8004 23.312C32.5204 23.96 33.3964 24.284 34.4284 24.284C35.9644 24.284 37.0324 23.636 37.6324 22.34H44.1844C43.8484 23.66 43.2364 24.848 42.3484 25.904C41.4844 26.96 40.3924 27.788 39.0724 28.388C37.7524 28.988 36.2764 29.288 34.6444 29.288C32.6764 29.288 30.9244 28.868 29.3884 28.028C27.8524 27.188 26.6524 25.988 25.7884 24.428C24.9244 22.868 24.4924 21.044 24.4924 18.956C24.4924 16.868 24.9124 15.044 25.7524 13.484C26.6164 11.924 27.8164 10.724 29.3524 9.884C30.8884 9.044 32.6524 8.624 34.6444 8.624C36.5884 8.624 38.3164 9.032 39.8284 9.848C41.3404 10.664 42.5164 11.828 43.3564 13.34C44.2204 14.852 44.6524 16.616 44.6524 18.632ZM38.3524 17.012C38.3524 15.956 37.9924 15.116 37.2724 14.492C36.5524 13.868 35.6524 13.556 34.5724 13.556C33.5404 13.556 32.6644 13.856 31.9444 14.456C31.2484 15.056 30.8164 15.908 30.6484 17.012H38.3524ZM57.98 14.024H54.668V29H48.512V14.024H46.28V8.912H48.512V8.336C48.512 5.864 49.22 3.992 50.636 2.72C52.052 1.424 54.128 0.775999 56.864 0.775999C57.32 0.775999 57.656 0.787998 57.872 0.811998V6.032C56.696 5.96 55.868 6.128 55.388 6.536C54.908 6.944 54.668 7.676 54.668 8.732V8.912H57.98V14.024ZM79.8086 18.632C79.8086 19.208 79.7726 19.808 79.7006 20.432H65.7686C65.8646 21.68 66.2606 22.64 66.9566 23.312C67.6766 23.96 68.5526 24.284 69.5846 24.284C71.1206 24.284 72.1886 23.636 72.7886 22.34H79.3406C79.0046 23.66 78.3926 24.848 77.5046 25.904C76.6406 26.96 75.5486 27.788 74.2286 28.388C72.9086 28.988 71.4326 29.288 69.8006 29.288C67.8326 29.288 66.0806 28.868 64.5446 28.028C63.0086 27.188 61.8086 25.988 60.9446 24.428C60.0806 22.868 59.6486 21.044 59.6486 18.956C59.6486 16.868 60.0686 15.044 60.9086 13.484C61.7726 11.924 62.9726 10.724 64.5086 9.884C66.0446 9.044 67.8086 8.624 69.8006 8.624C71.7446 8.624 73.4726 9.032 74.9846 9.848C76.4966 10.664 77.6726 11.828 78.5126 13.34C79.3766 14.852 79.8086 16.616 79.8086 18.632ZM73.5086 17.012C73.5086 15.956 73.1486 15.116 72.4286 14.492C71.7086 13.868 70.8086 13.556 69.7286 13.556C68.6966 13.556 67.8206 13.856 67.1006 14.456C66.4046 15.056 65.9726 15.908 65.8046 17.012H73.5086ZM89.2122 12.26C89.9322 11.156 90.8322 10.292 91.9122 9.668C92.9922 9.02 94.1922 8.696 95.5122 8.696V15.212H93.8202C92.2842 15.212 91.1322 15.548 90.3642 16.22C89.5962 16.868 89.2122 18.02 89.2122 19.676V29H83.0562V8.912H89.2122V12.26ZM104.611 12.26C105.331 11.156 106.231 10.292 107.311 9.668C108.391 9.02 109.591 8.696 110.911 8.696V15.212H109.219C107.683 15.212 106.531 15.548 105.763 16.22C104.995 16.868 104.611 18.02 104.611 19.676V29H98.4547V8.912H104.611V12.26ZM112.629 18.92C112.629 16.856 113.013 15.044 113.781 13.484C114.573 11.924 115.641 10.724 116.985 9.884C118.329 9.044 119.829 8.624 121.485 8.624C122.901 8.624 124.137 8.912 125.193 9.488C126.273 10.064 127.101 10.82 127.677 11.756V8.912H133.833V29H127.677V26.156C127.077 27.092 126.237 27.848 125.157 28.424C124.101 29 122.865 29.288 121.449 29.288C119.817 29.288 118.329 28.868 116.985 28.028C115.641 27.164 114.573 25.952 113.781 24.392C113.013 22.808 112.629 20.984 112.629 18.92ZM127.677 18.956C127.677 17.42 127.245 16.208 126.381 15.32C125.541 14.432 124.509 13.988 123.285 13.988C122.061 13.988 121.017 14.432 120.153 15.32C119.313 16.184 118.893 17.384 118.893 18.92C118.893 20.456 119.313 21.68 120.153 22.592C121.017 23.48 122.061 23.924 123.285 23.924C124.509 23.924 125.541 23.48 126.381 22.592C127.245 21.704 127.677 20.492 127.677 18.956ZM144.443 2.36V29H138.287V2.36H144.443ZM24.84 53H18.684L8.388 37.412V53H2.232V27.728H8.388L18.684 43.388V27.728H24.84V53ZM48.2383 42.632C48.2383 43.208 48.2023 43.808 48.1303 44.432H34.1983C34.2943 45.68 34.6903 46.64 35.3863 47.312C36.1063 47.96 36.9823 48.284 38.0143 48.284C39.5503 48.284 40.6183 47.636 41.2183 46.34H47.7703C47.4343 47.66 46.8223 48.848 45.9343 49.904C45.0703 50.96 43.9783 51.788 42.6583 52.388C41.3383 52.988 39.8623 53.288 38.2303 53.288C36.2623 53.288 34.5103 52.868 32.9743 52.028C31.4383 51.188 30.2383 49.988 29.3743 48.428C28.5103 46.868 28.0783 45.044 28.0783 42.956C28.0783 40.868 28.4983 39.044 29.3383 37.484C30.2023 35.924 31.4023 34.724 32.9383 33.884C34.4743 33.044 36.2383 32.624 38.2303 32.624C40.1743 32.624 41.9023 33.032 43.4143 33.848C44.9263 34.664 46.1023 35.828 46.9423 37.34C47.8063 38.852 48.2383 40.616 48.2383 42.632ZM41.9383 41.012C41.9383 39.956 41.5783 39.116 40.8583 38.492C40.1383 37.868 39.2383 37.556 38.1583 37.556C37.1263 37.556 36.2503 37.856 35.5303 38.456C34.8343 39.056 34.4023 39.908 34.2343 41.012H41.9383ZM62.6819 47.78V53H59.5499C57.3179 53 55.5779 52.46 54.3299 51.38C53.0819 50.276 52.4579 48.488 52.4579 46.016V38.024H50.0099V32.912H52.4579V28.016H58.6139V32.912H62.6459V38.024H58.6139V46.088C58.6139 46.688 58.7579 47.12 59.0459 47.384C59.3339 47.648 59.8139 47.78 60.4859 47.78H62.6819ZM94.9469 32.912L89.5109 53H82.7069L79.5389 39.968L76.2629 53H69.4949L64.0229 32.912H70.1789L73.0229 47.276L76.4069 32.912H82.9229L86.3429 47.204L89.1509 32.912H94.9469ZM106.439 53.288C104.471 53.288 102.695 52.868 101.111 52.028C99.5505 51.188 98.3145 49.988 97.4025 48.428C96.5145 46.868 96.0705 45.044 96.0705 42.956C96.0705 40.892 96.5265 39.08 97.4385 37.52C98.3505 35.936 99.5985 34.724 101.183 33.884C102.767 33.044 104.543 32.624 106.511 32.624C108.479 32.624 110.255 33.044 111.839 33.884C113.423 34.724 114.671 35.936 115.583 37.52C116.495 39.08 116.951 40.892 116.951 42.956C116.951 45.02 116.483 46.844 115.547 48.428C114.635 49.988 113.375 51.188 111.767 52.028C110.183 52.868 108.407 53.288 106.439 53.288ZM106.439 47.96C107.615 47.96 108.611 47.528 109.427 46.664C110.267 45.8 110.687 44.564 110.687 42.956C110.687 41.348 110.279 40.112 109.463 39.248C108.671 38.384 107.687 37.952 106.511 37.952C105.311 37.952 104.315 38.384 103.523 39.248C102.731 40.088 102.335 41.324 102.335 42.956C102.335 44.564 102.719 45.8 103.487 46.664C104.279 47.528 105.263 47.96 106.439 47.96ZM126.372 36.26C127.092 35.156 127.992 34.292 129.072 33.668C130.152 33.02 131.352 32.696 132.672 32.696V39.212H130.98C129.444 39.212 128.292 39.548 127.524 40.22C126.756 40.868 126.372 42.02 126.372 43.676V53H120.216V32.912H126.372V36.26ZM147.891 53L141.771 44.576V53H135.615V26.36H141.771V41.084L147.855 32.912H155.451L147.099 42.992L155.523 53H147.891Z" fill="#060606"/>
<path d="M158.704 53.096C158.344 53.096 158.048 52.992 157.816 52.784C157.592 52.568 157.48 52.304 157.48 51.992C157.48 51.672 157.592 51.404 157.816 51.188C158.048 50.972 158.344 50.864 158.704 50.864C159.056 50.864 159.344 50.972 159.568 51.188C159.8 51.404 159.916 51.672 159.916 51.992C159.916 52.304 159.8 52.568 159.568 52.784C159.344 52.992 159.056 53.096 158.704 53.096ZM168.427 44.576V53H166.375V49.532H163.183V53H161.131V44.576H163.183V47.876H166.375V44.576H168.427ZM176.52 46.304V53H174.468V52.088C174.26 52.384 173.976 52.624 173.616 52.808C173.264 52.984 172.872 53.072 172.44 53.072C171.928 53.072 171.476 52.96 171.084 52.736C170.692 52.504 170.388 52.172 170.172 51.74C169.956 51.308 169.848 50.8 169.848 50.216V46.304H171.888V49.94C171.888 50.388 172.004 50.736 172.236 50.984C172.468 51.232 172.78 51.356 173.172 51.356C173.572 51.356 173.888 51.232 174.12 50.984C174.352 50.736 174.468 50.388 174.468 49.94V46.304H176.52ZM180.046 47.252C180.238 46.94 180.514 46.688 180.874 46.496C181.234 46.304 181.646 46.208 182.11 46.208C182.662 46.208 183.162 46.348 183.61 46.628C184.058 46.908 184.41 47.308 184.666 47.828C184.93 48.348 185.062 48.952 185.062 49.64C185.062 50.328 184.93 50.936 184.666 51.464C184.41 51.984 184.058 52.388 183.61 52.676C183.162 52.956 182.662 53.096 182.11 53.096C181.638 53.096 181.226 53.004 180.874 52.82C180.522 52.628 180.246 52.376 180.046 52.064V53H177.994V44.12H180.046V47.252ZM182.974 49.64C182.974 49.128 182.83 48.728 182.542 48.44C182.262 48.144 181.914 47.996 181.498 47.996C181.09 47.996 180.742 48.144 180.454 48.44C180.174 48.736 180.034 49.14 180.034 49.652C180.034 50.164 180.174 50.568 180.454 50.864C180.742 51.16 181.09 51.308 181.498 51.308C181.906 51.308 182.254 51.16 182.542 50.864C182.83 50.56 182.974 50.152 182.974 49.64Z" fill="#060606"/>
</svg>
